<?xml version="1.0" standalone="no"?>
<!DOCTYPE svg PUBLIC "-//W3C//DTD SVG 20010904//EN"
 "http://www.w3.org/TR/2001/REC-SVG-20010904/DTD/svg10.dtd">
<svg version="1.0" xmlns="http://www.w3.org/2000/svg"
 width="1024.000000pt" height="556.000000pt" viewBox="0 0 1024.000000 556.000000"
 preserveAspectRatio="xMidYMid meet">

<g transform="translate(0.000000,556.000000) scale(0.100000,-0.100000)"
fill="#000000" stroke="none">
<path d="M4825 5453 c-627 -68 -1191 -344 -1626 -798 -303 -316 -508 -674
-633 -1107 -89 -307 -116 -732 -68 -1049 21 -136 66 -338 91 -401 8 -20 17
-28 36 -28 14 0 25 2 25 4 0 2 -13 48 -30 103 -75 252 -110 577 -91 841 38
528 214 988 540 1412 97 127 349 374 481 472 362 270 763 435 1200 494 152 21
463 24 600 6 484 -65 900 -238 1290 -540 100 -78 311 -286 396 -392 157 -195
298 -432 384 -645 17 -44 38 -96 46 -115 50 -128 114 -412 135 -600 23 -218 8
-532 -36 -738 -18 -85 -62 -262 -71 -287 -6 -14 -2 -16 22 -13 27 3 30 8 56
98 68 237 105 587 88 830 -21 303 -65 507 -165 775 -64 170 -209 444 -304 575
-230 315 -471 541 -777 728 -299 183 -592 292 -941 353 -92 16 -172 21 -363
24 -135 1 -263 1 -285 -2z"/>
<path d="M5005 4951 c-79 -37 -115 -95 -115 -187 0 -70 16 -107 97 -225 74
-110 87 -157 59 -223 -20 -47 -20 -56 -2 -56 22 0 56 64 62 117 9 69 -9 121
-69 205 -88 122 -104 185 -67 257 33 65 116 90 174 52 60 -40 72 -101 30 -150
-28 -33 -59 -39 -89 -17 -14 10 -17 21 -12 50 4 25 2 36 -7 36 -22 0 -36 -23
-36 -61 0 -29 7 -43 31 -63 38 -33 85 -34 130 -3 42 28 61 65 61 121 0 72 -35
121 -105 151 -48 20 -93 19 -142 -4z"/>
<path d="M4684 4118 c-8 -12 -28 -213 -40 -405 -9 -132 3 -175 68 -249 27 -32
54 -68 59 -81 11 -30 11 -182 -1 -368 -22 -362 -43 -833 -36 -858 3 -15 19
-42 35 -60 26 -29 35 -32 85 -32 49 0 59 4 88 33 31 30 33 37 37 113 3 72 -7
257 -39 752 -13 189 -13 389 0 421 5 14 27 45 48 68 53 58 73 101 79 167 6 69
-33 491 -46 504 -5 5 -17 7 -27 3 -15 -6 -16 -16 -10 -84 28 -312 35 -413 32
-424 -3 -7 -7 -25 -10 -39 -3 -14 -30 -56 -60 -93 -65 -78 -71 -102 -70 -246
1 -102 5 -165 39 -770 18 -307 16 -331 -29 -351 -36 -17 -73 -3 -92 33 -15 29
-16 51 -5 233 62 1073 65 1005 -38 1117 -66 71 -68 93 -30 496 5 61 7 117 4
122 -9 14 -32 13 -41 -2z"/>
<path d="M4786 4121 c-4 -6 -10 -109 -13 -230 -6 -203 -5 -221 11 -227 10 -4
21 -3 26 2 5 5 10 110 12 234 3 203 1 225 -14 228 -9 2 -19 -2 -22 -7z"/>
<path d="M4887 4124 c-4 -4 -7 -102 -7 -219 0 -165 3 -215 14 -230 12 -16 16
-17 30 -6 13 11 16 34 15 125 -3 219 -13 331 -29 334 -9 1 -19 0 -23 -4z"/>
<path d="M5305 4116 c-41 -18 -108 -93 -132 -147 -73 -164 -61 -349 30 -459
23 -29 52 -65 65 -80 43 -53 43 -73 7 -705 -27 -471 -28 -539 -16 -577 16 -48
51 -79 100 -85 49 -7 89 9 116 45 19 25 20 41 18 217 -1 105 -6 251 -12 325
-6 74 -16 259 -22 410 -14 319 -11 335 55 403 94 95 129 219 103 368 -23 136
-87 248 -161 283 -41 19 -110 20 -151 2z m144 -66 c75 -53 126 -192 119 -325
-5 -96 -28 -153 -88 -215 -71 -75 -84 -115 -83 -257 1 -120 24 -555 43 -839
16 -224 14 -251 -15 -279 -31 -32 -65 -32 -96 1 -29 30 -29 42 -11 369 6 121
19 351 27 510 21 379 18 401 -72 498 -60 65 -85 125 -91 219 -11 178 98 360
206 344 18 -3 45 -14 61 -26z"/>
<path d="M7600 1770 c0 -55 -3 -100 -7 -100 -3 0 -14 7 -24 16 -29 26 -98 29
-136 5 -51 -32 -68 -73 -68 -171 0 -71 4 -91 22 -121 26 -41 59 -59 109 -59
40 0 93 24 95 43 1 6 4 1 8 -13 5 -18 14 -25 31 -25 l25 0 3 263 2 262 -30 0
-30 0 0 -100z m-34 -144 c32 -32 34 -38 34 -101 0 -63 -2 -69 -34 -101 -64
-64 -129 -32 -136 66 -6 83 0 111 29 141 38 38 65 37 107 -5z"/>
<path d="M2440 1824 c0 -25 139 -435 156 -462 12 -18 23 -22 46 -20 l32 3 82
243 c83 249 85 259 37 250 -14 -2 -34 -50 -84 -201 -37 -109 -69 -200 -71
-203 -3 -2 -33 82 -67 188 -34 106 -64 199 -66 206 -7 19 -65 15 -65 -4z"/>
<path d="M2892 1808 c3 -29 6 -33 33 -33 27 0 30 4 33 33 3 31 2 32 -33 32
-35 0 -36 -1 -33 -32z"/>
<path d="M4727 1827 c-52 -17 -103 -60 -129 -110 -19 -34 -23 -58 -23 -132 0
-78 3 -96 25 -135 14 -24 45 -58 68 -75 41 -28 50 -30 130 -30 58 0 97 5 117
15 l30 15 0 115 0 115 -85 0 c-80 0 -85 -1 -88 -22 -3 -20 1 -22 55 -25 l58
-3 3 -65 c4 -78 -7 -90 -86 -90 -105 0 -161 65 -162 188 0 73 16 116 58 155
52 49 126 55 204 16 41 -21 54 -13 44 26 -10 41 -143 67 -219 42z"/>
<path d="M3076 1785 c-3 -9 -6 -32 -6 -51 0 -31 -2 -34 -31 -34 -26 0 -30 -3
-27 -22 2 -16 11 -24 30 -26 l26 -3 4 -130 c3 -129 3 -131 31 -155 48 -41 127
-29 127 18 0 16 -5 18 -33 13 -51 -10 -59 7 -60 137 l-2 113 45 5 c37 4 46 9
48 28 3 20 -1 22 -42 22 -49 0 -48 -2 -50 70 -1 19 -7 26 -27 28 -17 2 -29 -3
-33 -13z"/>
<path d="M4198 1753 c-3 -44 -5 -48 -31 -51 -23 -3 -28 -8 -25 -25 2 -16 11
-23 31 -25 l27 -3 0 -130 c0 -125 1 -131 25 -155 21 -21 33 -25 73 -22 43 3
47 5 50 30 3 26 2 27 -29 21 -50 -10 -59 11 -59 144 l0 113 45 0 c41 0 45 2
45 25 0 23 -4 25 -44 25 l-45 0 -3 48 c-3 43 -5 47 -30 50 -26 3 -27 1 -30
-45z"/>
<path d="M3362 1693 c-45 -22 -68 -54 -82 -113 -22 -92 7 -180 72 -220 38 -23
109 -26 169 -8 32 9 39 16 39 36 0 21 -3 23 -22 18 -42 -13 -106 -19 -133 -12
-29 7 -65 59 -65 94 0 22 2 22 114 22 103 0 114 2 119 19 7 28 -8 96 -27 126
-34 51 -121 69 -184 38z m127 -59 c12 -15 21 -37 21 -50 0 -23 -2 -24 -85 -24
-77 0 -85 2 -85 19 0 11 12 33 26 50 35 42 92 44 123 5z"/>
<path d="M3890 1692 c-66 -33 -100 -121 -85 -215 10 -59 34 -96 77 -118 72
-37 208 -16 208 32 0 18 -4 20 -22 14 -13 -4 -49 -9 -80 -12 -54 -5 -59 -3
-88 25 -20 21 -30 40 -30 61 l0 30 113 3 112 3 3 45 c5 84 -55 150 -138 150
-19 0 -51 -8 -70 -18z m119 -49 c11 -10 24 -33 27 -50 l7 -33 -87 0 c-78 0
-86 2 -86 19 0 11 12 33 26 50 30 36 79 42 113 14z"/>
<path d="M5134 1699 c-72 -21 -108 -90 -102 -198 6 -109 59 -161 165 -161 98
0 153 67 153 187 -1 140 -87 210 -216 172z m100 -50 c48 -22 70 -125 42 -193
-43 -104 -164 -78 -181 38 -18 115 53 194 139 155z"/>
<path d="M5443 1703 c-19 -7 -18 -252 1 -297 18 -44 52 -66 99 -66 41 0 97 24
97 41 0 6 5 7 10 4 6 -3 10 -15 10 -26 0 -14 7 -19 25 -19 l25 0 0 180 0 180
-30 0 -30 0 0 -122 c-1 -81 -5 -128 -13 -139 -24 -30 -66 -51 -92 -45 -43 11
-55 52 -55 184 0 106 -2 120 -17 124 -10 3 -24 3 -30 1z"/>
<path d="M5905 1686 c-31 -31 -35 -32 -35 -6 0 15 -7 20 -25 20 l-24 0 -3
-164 c-4 -199 -4 -198 30 -194 l27 3 5 121 c4 92 9 126 23 147 18 28 56 43 83
33 12 -5 15 1 12 27 -3 28 -7 32 -35 35 -24 2 -39 -3 -58 -22z"/>
<path d="M6173 1696 c-18 -8 -33 -20 -33 -26 0 -5 -4 -10 -10 -10 -5 0 -10 9
-10 20 0 16 -7 20 -30 20 l-30 0 2 -177 3 -178 30 0 30 0 3 127 3 126 35 31
c41 36 44 37 75 12 23 -18 24 -27 29 -158 l5 -138 30 0 30 0 5 130 c3 72 9
136 13 143 17 25 65 42 91 32 32 -12 36 -28 39 -180 l2 -125 28 -3 27 -3 0
146 c0 170 -9 198 -71 217 -45 13 -79 5 -116 -26 l-28 -25 -26 25 c-32 31 -84
39 -126 20z"/>
<path d="M6692 1699 c-32 -10 -63 -51 -48 -66 3 -4 28 1 54 10 87 31 132 14
132 -51 0 -25 -4 -32 -20 -32 -50 0 -124 -24 -153 -50 -24 -21 -31 -36 -31
-63 0 -45 19 -82 51 -96 39 -18 107 -14 136 9 25 20 25 20 30 -1 4 -15 12 -20
29 -17 23 3 23 4 23 148 0 100 -4 152 -14 168 -25 45 -110 63 -189 41z m138
-233 c0 -52 -27 -76 -85 -76 -28 0 -38 5 -46 24 -15 33 -3 75 24 86 12 5 41 9
65 9 l42 1 0 -44z"/>
<path d="M7115 1700 c-12 -4 -27 -15 -34 -24 -18 -22 -31 -20 -31 4 0 15 -7
20 -25 20 l-25 0 0 -181 0 -180 28 3 27 3 3 125 c2 112 5 127 25 148 50 54
109 46 127 -17 5 -20 10 -87 10 -149 l0 -113 28 3 27 3 3 131 c2 99 -1 139
-13 167 -23 56 -91 82 -150 57z"/>
<path d="M2894 1687 c-2 -7 -3 -87 -2 -177 l3 -165 30 0 30 0 3 178 2 177 -30
0 c-17 0 -33 -6 -36 -13z"/>
<path d="M3110 1161 c0 -10 138 -158 224 -240 325 -313 781 -550 1243 -647
242 -51 616 -64 833 -30 498 79 919 267 1289 576 111 93 310 292 332 331 8 16
6 19 -15 19 -19 0 -63 -38 -178 -153 -296 -297 -618 -497 -1003 -622 -690
-226 -1418 -139 -2049 244 -183 110 -297 201 -471 373 -112 112 -166 158 -182
158 -13 0 -23 -4 -23 -9z"/>
</g>
</svg>
